<svg width="24" height="24" viewBox="0 0 24 24" fill="none" xmlns="http://www.w3.org/2000/svg">
<path d="M12 14C11.5234 14 11.0578 14.0476 10.608 14.1384M12 14C12.4879 14 12.9499 14.047 13.392 14.1384M12 14C12.4766 14 12.9422 14.0476 13.392 14.1384M12 14C11.5121 14 11.0501 14.047 10.608 14.1384M10.608 14.1384C7.40886 14.7839 5 17.6106 5 21M10.608 14.1384C9.89444 14.2859 9.23255 14.5491 8.5968 14.9169M15.4032 14.9169C14.7675 14.5491 14.1056 14.2859 13.392 14.1384M13.392 14.1384C16.5911 14.7839 19 17.6106 19 21M12 11C9.79086 11 8 9.20914 8 7C8 4.79086 9.79086 3 12 3C14.2091 3 16 4.79086 16 7C16 9.20914 14.2091 11 12 11Z" stroke="#92A5B8" stroke-width="1.5" stroke-linecap="round" stroke-linejoin="round"/>
</svg>
