<svg width="24" height="24" viewBox="0 0 24 24" fill="none" xmlns="http://www.w3.org/2000/svg">
<path d="M2 8.50508H22M5.01099 4.50004V4C5.01099 3.72386 5.23484 3.5 5.51099 3.5H18.4878C18.7639 3.5 18.9878 3.72386 18.9878 4V4.50004M5.98834 11.0001H6.03295M5.96603 14.1079H6.01064M5.94379 17.2158H5.9884M10.033 11.0001H10.0776M10.0107 14.1079H10.0553M9.98834 17.2158H10.033M14.0776 11.0001H14.1222M14.0553 14.1079H14.0999M14.033 17.2158H14.0776M18.1222 11.0001H18.1668M18.0999 14.1079H18.1445M18.0776 17.2158H18.1222M4 20.5H20C21.1046 20.5 22 19.6046 22 18.5V6.5C22 5.39543 21.1046 4.5 20 4.5H4C2.89543 4.5 2 5.39543 2 6.5V18.5C2 19.6046 2.89543 20.5 4 20.5Z" stroke="#92A5B8" stroke-width="1.5" stroke-linecap="round" stroke-linejoin="round"/>
</svg>
