<svg width="24" height="24" viewBox="0 0 24 24" fill="none" xmlns="http://www.w3.org/2000/svg">
<path d="M13.2791 13.4047L19.0048 19.0004M14.9928 9.03107C14.9928 9.81955 14.8375 10.6003 14.5358 11.3288C14.234 12.0572 13.7917 12.7191 13.2342 13.2767C12.6767 13.8342 12.0148 14.2765 11.2863 14.5782C10.5578 14.88 9.77707 15.0353 8.98859 15.0353C8.2001 15.0353 7.41934 14.88 6.69087 14.5782C5.96241 14.2765 5.30051 13.8342 4.74297 13.2767C4.18542 12.7191 3.74316 12.0572 3.44142 11.3288C3.13968 10.6003 2.98437 9.81955 2.98438 9.03107C2.98438 8.24258 3.13968 7.46182 3.44142 6.73335C3.74316 6.00489 4.18543 5.34299 4.74297 4.78545C5.30051 4.22791 5.96241 3.78564 6.69087 3.4839C7.41934 3.18216 8.2001 3.02686 8.98859 3.02686C9.77707 3.02686 10.5578 3.18216 11.2863 3.4839C12.0148 3.78564 12.6767 4.22791 13.2342 4.78545C13.7917 5.34299 14.234 6.00489 14.5358 6.73336C14.8375 7.46182 14.9928 8.24258 14.9928 9.03107Z" stroke="#92A5B8" stroke-width="1.5" stroke-linecap="round" stroke-linejoin="round"/>
</svg>
